<?xml version="1.0" standalone="no"?>
<!DOCTYPE svg PUBLIC "-//W3C//DTD SVG 20010904//EN"
 "http://www.w3.org/TR/2001/REC-SVG-20010904/DTD/svg10.dtd">
<svg version="1.0" xmlns="http://www.w3.org/2000/svg"
 width="16.000000pt" height="16.000000pt" viewBox="0 0 16.000000 16.000000"
 preserveAspectRatio="xMidYMid meet">
<metadata>
Created by potrace 1.11, written by Peter Selinger 2001-2013
</metadata>
<g transform="translate(0.000000,16.000000) scale(0.006154,-0.006154)"
fill="#000000" stroke="none">
<path d="M1040 2474 c-150 -28 -237 -72 -296 -150 -29 -37 -29 -38 -32 -206
l-4 -168 293 -2 292 -3 1 -37 1 -37 -455 -3 -455 -3 -58 -30 c-102 -51 -172
-150 -214 -297 -27 -97 -25 -414 4 -519 30 -106 58 -162 114 -224 74 -81 125
-99 279 -99 l125 -1 5 195 5 195 33 67 c34 70 80 114 149 146 33 15 86 18 418
22 368 6 382 6 440 29 41 16 76 40 111 75 79 81 84 108 84 487 l0 315 -26 52
c-44 88 -128 145 -272 183 -106 29 -417 36 -542 13z m-12 -199 c36 -31 46 -66
32 -111 -28 -84 -162 -84 -190 0 -14 45 -4 80 32 111 39 33 87 33 126 0z"/>
<path d="M1958 1698 c-4 -162 -7 -190 -28 -242 -29 -75 -95 -147 -163 -177
-51 -23 -60 -24 -432 -29 -364 -5 -382 -6 -436 -28 -62 -25 -120 -77 -152
-137 -21 -38 -22 -54 -25 -388 -3 -339 -3 -349 18 -393 43 -88 143 -149 305
-186 123 -29 389 -30 520 -4 158 32 255 88 294 169 18 38 21 62 21 195 l0 152
-295 0 -295 0 0 45 0 45 453 0 c339 1 461 4 487 14 101 35 189 137 232 266 19
56 22 94 26 267 3 179 1 211 -17 283 -29 115 -65 186 -125 245 -72 70 -121 85
-268 85 l-116 0 -4 -182z m-255 -1248 c61 -68 17 -170 -73 -170 -52 0 -76 13
-95 50 -29 57 -16 107 38 141 44 27 93 19 130 -21z"/>
</g>
</svg>
